<svg width="15" height="15" viewBox="0 0 15 15" fill="none" xmlns="http://www.w3.org/2000/svg">
<mask id="mask0_4_20" style="mask-type:alpha" maskUnits="userSpaceOnUse" x="0" y="0" width="15" height="15">
<rect width="15" height="15" fill="#D9D9D9"/>
</mask>
<g mask="url(#mask0_4_20)">
<path d="M10 5.25L4.45312 10.8125C4.32812 10.9375 4.17969 11 4.00781 11C3.83594 11 3.6875 10.9375 3.5625 10.8125C3.4375 10.6875 3.375 10.5391 3.375 10.3672C3.375 10.1953 3.4375 10.0469 3.5625 9.92188L9.125 4.375H4.375C4.19792 4.375 4.04948 4.3151 3.92969 4.19531C3.8099 4.07552 3.75 3.92708 3.75 3.75C3.75 3.57292 3.8099 3.42448 3.92969 3.30469C4.04948 3.1849 4.19792 3.125 4.375 3.125H10.625C10.8021 3.125 10.9505 3.1849 11.0703 3.30469C11.1901 3.42448 11.25 3.57292 11.25 3.75V10C11.25 10.1771 11.1901 10.3255 11.0703 10.4453C10.9505 10.5651 10.8021 10.625 10.625 10.625C10.4479 10.625 10.2995 10.5651 10.1797 10.4453C10.0599 10.3255 10 10.1771 10 10V5.25Z" fill="#004EA2"/>
</g>
</svg>
