<svg width="45" height="45" viewBox="0 0 45 45" fill="none" xmlns="http://www.w3.org/2000/svg">
<mask id="mask0_5_208" style="mask-type:alpha" maskUnits="userSpaceOnUse" x="0" y="0" width="45" height="45">
<rect width="45" height="45" fill="#D9D9D9"/>
</mask>
<g mask="url(#mask0_5_208)">
<path d="M4.43518 38.5817V5.76923H22.2476V13.2692H40.5649V38.5817H4.43518ZM7.24759 35.7692H11.9351V31.0817H7.24759V35.7692ZM7.24759 28.2692H11.9351V23.5817H7.24759V28.2692ZM7.24759 20.7692H11.9351V16.0817H7.24759V20.7692ZM7.24759 13.2692H11.9351V8.58168H7.24759V13.2692ZM14.7476 35.7692H19.4351V31.0817H14.7476V35.7692ZM14.7476 28.2692H19.4351V23.5817H14.7476V28.2692ZM14.7476 20.7692H19.4351V16.0817H14.7476V20.7692ZM14.7476 13.2692H19.4351V8.58168H14.7476V13.2692ZM22.2476 35.7692H37.7524V16.0817H22.2476V20.7692H26.3582V23.5817H22.2476V28.2692H26.3582V31.0817H22.2476V35.7692ZM30.4688 23.5817V20.7692H33.2812V23.5817H30.4688ZM30.4688 31.0817V28.2692H33.2812V31.0817H30.4688Z" fill="white"/>
</g>
</svg>
