<svg width="45" height="45" viewBox="0 0 45 45" fill="none" xmlns="http://www.w3.org/2000/svg">
<mask id="mask0_5_214" style="mask-type:alpha" maskUnits="userSpaceOnUse" x="0" y="0" width="45" height="45">
<rect width="45" height="45" fill="#D9D9D9"/>
</mask>
<g mask="url(#mask0_5_214)">
<path d="M24.2344 20.7187L16.9327 13.4171L18.9375 11.4592L24.2344 16.7561L34.875 6.16235L36.8329 8.12023L24.2344 20.7187ZM25.9254 40.8532L12.2235 36.9446V39.5191H2.84863V21.5625H16.2764L27.7572 25.8029C28.6081 26.1178 29.3148 26.6749 29.8773 27.4742C30.4398 28.2734 30.7211 29.2115 30.7211 30.2884H35.4086C36.7548 30.2884 37.8545 30.7446 38.7079 31.6568C39.5612 32.5691 39.9879 33.7716 39.9879 35.2644V36.4542L25.9254 40.8532ZM5.66104 36.7067H9.41104V24.375H5.66104V36.7067ZM25.8317 37.8894L37.024 34.4206C36.9663 34.0047 36.7854 33.6808 36.4814 33.4489C36.1773 33.2169 35.8197 33.1009 35.4086 33.1009H26.5168C25.6082 33.1009 24.7512 33.0414 23.9459 32.9224C23.1406 32.8034 22.3389 32.6057 21.5409 32.3292L18.1081 31.1682L18.9879 28.4712L22.6298 29.6899C23.2283 29.9014 23.9146 30.0541 24.6887 30.1478C25.4627 30.2416 26.536 30.2884 27.9086 30.2884C27.9086 29.8245 27.8041 29.4243 27.5949 29.0877C27.3858 28.7512 27.1106 28.524 26.7692 28.4062L15.8004 24.375H12.2235V34.0384L25.8317 37.8894Z" fill="white"/>
</g>
</svg>
