<svg width="45" height="45" viewBox="0 0 45 45" fill="none" xmlns="http://www.w3.org/2000/svg">
<mask id="mask0_5_205" style="mask-type:alpha" maskUnits="userSpaceOnUse" x="0" y="0" width="45" height="45">
<rect width="45" height="45" fill="#D9D9D9"/>
</mask>
<g mask="url(#mask0_5_205)">
<path d="M30 15.577V9.95198H15V15.577H12.1876V7.13953H32.8125V15.577H30ZM33.3894 23.0769C33.9207 23.0769 34.366 22.8972 34.7254 22.5378C35.0847 22.1784 35.2644 21.7331 35.2644 21.2019C35.2644 20.6706 35.0847 20.2253 34.7254 19.8659C34.366 19.5066 33.9207 19.3269 33.3894 19.3269C32.8582 19.3269 32.4129 19.5066 32.0535 19.8659C31.6941 20.2253 31.5144 20.6706 31.5144 21.2019C31.5144 21.7331 31.6941 22.1784 32.0535 22.5378C32.4129 22.8972 32.8582 23.0769 33.3894 23.0769ZM30 35.625V27.6202H15V35.625H30ZM32.8125 38.4374H12.1876V30.9374H5.22852V20.2644C5.22852 18.9363 5.68223 17.823 6.58967 16.9246C7.49711 16.0262 8.60586 15.577 9.91592 15.577H35.0841C36.4122 15.577 37.5255 16.0262 38.4239 16.9246C39.3223 17.823 39.7715 18.9363 39.7715 20.2644V30.9374H32.8125V38.4374ZM36.9591 28.125V20.2644C36.9591 19.7331 36.7795 19.2878 36.4201 18.9284C36.0607 18.5691 35.6154 18.3894 35.0841 18.3894H9.91592C9.38467 18.3894 8.93936 18.5691 8.57998 18.9284C8.22061 19.2878 8.04092 19.7331 8.04092 20.2644V28.125H12.1876V24.8077H32.8125V28.125H36.9591Z" fill="white"/>
</g>
</svg>
