<svg width="45" height="45" viewBox="0 0 45 45" fill="none" xmlns="http://www.w3.org/2000/svg">
<mask id="mask0_5_211" style="mask-type:alpha" maskUnits="userSpaceOnUse" x="0" y="0" width="45" height="45">
<rect width="45" height="45" fill="#D9D9D9"/>
</mask>
<g mask="url(#mask0_5_211)">
<path d="M12.1876 40.3125V32.7548C10.4063 31.1298 9.0235 29.2674 8.03912 27.1676C7.05475 25.0679 6.56256 22.8827 6.56256 20.612C6.56256 16.1885 8.11205 12.4286 11.211 9.33222C14.31 6.23578 18.073 4.68756 22.5 4.68756C26.1418 4.68756 29.3984 5.77591 32.2698 7.9526C35.1412 10.1293 37.006 12.9532 37.8641 16.4243L40.0549 25.0766C40.1953 25.6113 40.0961 26.0967 39.7571 26.533C39.4182 26.9693 38.9663 27.1875 38.4014 27.1875H34.6875V33.173C34.6875 34.1051 34.3556 34.9031 33.6918 35.5668C33.028 36.2306 32.2301 36.5625 31.298 36.5625H27.1875V40.3125H24.375V33.75H31.298C31.4663 33.75 31.6045 33.6959 31.7127 33.5877C31.8209 33.4795 31.875 33.3413 31.875 33.173V24.375H36.9375L35.1563 17.1094C34.4375 14.2536 32.9002 11.9381 30.5445 10.1629C28.1887 8.38764 25.5072 7.50002 22.5 7.50002C18.875 7.50002 15.7813 8.76739 13.2188 11.3021C10.6563 13.8369 9.37501 16.9193 9.37501 20.5493C9.37501 22.4212 9.75783 24.1995 10.5235 25.8843C11.2891 27.569 12.375 29.0665 13.7813 30.3768L15 31.5V40.3125H12.1876ZM21.0397 27.7284H23.9603L24.1695 25.6911C24.5397 25.5974 24.8864 25.461 25.2097 25.2819C25.5331 25.1028 25.8089 24.881 26.0373 24.6166L27.869 25.4639L29.3293 22.9796L27.7067 21.7717C27.8413 21.3895 27.9086 21.0072 27.9086 20.625C27.9086 20.2428 27.8413 19.8606 27.7067 19.4784L29.3293 18.2704L27.869 15.7861L26.0373 16.6335C25.8089 16.369 25.5331 16.1473 25.2097 15.9682C24.8864 15.7891 24.5397 15.6527 24.1695 15.5589L23.9603 13.5217H21.0397L20.8306 15.5589C20.4604 15.6527 20.1136 15.7891 19.7903 15.9682C19.467 16.1473 19.1911 16.369 18.9627 16.6335L17.131 15.7861L15.6707 18.2704L17.2933 19.4784C17.1587 19.8606 17.0914 20.2428 17.0914 20.625C17.0914 21.0072 17.1587 21.3895 17.2933 21.7717L15.6707 22.9796L17.131 25.4639L18.9627 24.6166C19.1911 24.881 19.467 25.1028 19.7903 25.2819C20.1136 25.461 20.4604 25.5974 20.8306 25.6911L21.0397 27.7284ZM22.4989 23.7801C21.6222 23.7801 20.8774 23.4732 20.2644 22.8596C19.6514 22.2459 19.345 21.5007 19.345 20.6239C19.345 19.7473 19.6518 19.0024 20.2655 18.3894C20.8792 17.7764 21.6244 17.47 22.5011 17.47C23.3778 17.47 24.1226 17.7768 24.7356 18.3905C25.3486 19.0042 25.6551 19.7494 25.6551 20.6261C25.6551 21.5028 25.3482 22.2476 24.7345 22.8606C24.1209 23.4736 23.3757 23.7801 22.4989 23.7801Z" fill="white"/>
</g>
</svg>
