<svg width="45" height="45" viewBox="0 0 45 45" fill="none" xmlns="http://www.w3.org/2000/svg">
<mask id="mask0_5_199" style="mask-type:alpha" maskUnits="userSpaceOnUse" x="0" y="0" width="45" height="45">
<rect width="45" height="45" fill="#D9D9D9"/>
</mask>
<g mask="url(#mask0_5_199)">
<path d="M22.464 36.31C20.952 35.1946 19.327 34.3329 17.589 33.7247C15.851 33.1165 14.0505 32.8125 12.1875 32.8125C11.0433 32.8125 9.91953 32.9393 8.81618 33.1929C7.71281 33.4465 6.64911 33.8196 5.62508 34.3124C4.95683 34.6201 4.32101 34.5744 3.71764 34.1754C3.11429 33.7763 2.81262 33.2114 2.81262 32.4807V12.1587C2.81262 11.7549 2.91959 11.3817 3.13353 11.0391C3.34747 10.6966 3.64434 10.4472 4.02415 10.2909C5.29337 9.67312 6.61608 9.2098 7.99226 8.90092C9.36845 8.59201 10.7669 8.43756 12.1875 8.43756C14.0121 8.43756 15.7885 8.69598 17.5168 9.21283C19.2452 9.72967 20.9063 10.4568 22.5 11.3943V32.9279C24.0817 31.9279 25.7506 31.1899 27.5067 30.714C29.2627 30.238 31.0313 30 32.8125 30C33.8894 30 34.9069 30.0757 35.8648 30.2272C36.8227 30.3786 37.8125 30.6178 38.8341 30.9447C38.9664 30.9808 39.0896 30.9838 39.2037 30.9537C39.3179 30.9237 39.375 30.8245 39.375 30.6562V9.59866C39.6995 9.69481 40.0162 9.80178 40.3251 9.91956C40.634 10.0373 40.9351 10.1852 41.2283 10.363C41.548 10.5193 41.7878 10.7477 41.9477 11.0481C42.1075 11.3486 42.1875 11.6708 42.1875 12.0145V32.4446C42.1875 33.1754 41.8768 33.7373 41.2554 34.1303C40.634 34.5233 39.9711 34.572 39.2668 34.2764C38.2548 33.7956 37.2061 33.4314 36.1208 33.1838C35.0355 32.9363 33.9327 32.8125 32.8125 32.8125C30.9375 32.8125 29.119 33.1075 27.357 33.6977C25.595 34.2878 23.964 35.1586 22.464 36.31ZM26.25 28.125V11.2501L35.625 1.87506V19.6875L26.25 28.125ZM19.6876 31.5685V13.0962C18.5121 12.5145 17.2946 12.0613 16.0349 11.7368C14.7753 11.4123 13.4928 11.25 12.1875 11.25C11.0313 11.25 9.93332 11.3564 8.89367 11.5691C7.85401 11.7819 6.87865 12.0769 5.96759 12.4543C5.87143 12.4904 5.79031 12.5415 5.72422 12.6076C5.65809 12.6737 5.62503 12.7548 5.62503 12.851V30.7211C5.62503 30.8894 5.68212 30.9886 5.79631 31.0187C5.9105 31.0487 6.0337 31.0397 6.16592 30.9916C7.09139 30.6575 8.04511 30.4087 9.02707 30.2452C10.009 30.0817 11.0625 30 12.1875 30C13.589 30 14.9279 30.1448 16.2044 30.4345C17.4809 30.7242 18.6419 31.1022 19.6876 31.5685Z" fill="white"/>
</g>
</svg>
