<svg width="45" height="45" viewBox="0 0 45 45" fill="none" xmlns="http://www.w3.org/2000/svg">
<mask id="mask0_5_202" style="mask-type:alpha" maskUnits="userSpaceOnUse" x="0" y="0" width="45" height="45">
<rect width="45" height="45" fill="#D9D9D9"/>
</mask>
<g mask="url(#mask0_5_202)">
<path d="M22.5 40.3125C20.0576 40.3125 17.753 39.8443 15.5859 38.908C13.4189 37.9717 11.5288 36.6971 9.91584 35.0841C8.30288 33.4711 7.02825 31.5811 6.09197 29.414C5.15566 27.247 4.6875 24.9423 4.6875 22.5C4.6875 20.0385 5.15566 17.729 6.09197 15.5716C7.02825 13.4141 8.30288 11.5289 9.91584 9.91591C11.5288 8.30294 13.4189 7.02831 15.5859 6.09203C17.753 5.15572 20.0576 4.68756 22.5 4.68756C24.9615 4.68756 27.271 5.15572 29.4284 6.09203C31.5858 7.02831 33.4711 8.30294 35.0841 9.91591C36.697 11.5289 37.9717 13.4141 38.9079 15.5716C39.8443 17.729 40.3124 20.0385 40.3124 22.5C40.3124 24.9423 39.8443 27.247 38.9079 29.414C37.9717 31.5811 36.697 33.4711 35.0841 35.0841C33.4711 36.6971 31.5858 37.9717 29.4284 38.908C27.271 39.8443 24.9615 40.3125 22.5 40.3125ZM22.5 37.4604C23.4567 36.1911 24.262 34.911 24.9158 33.6202C25.5697 32.3293 26.1021 30.9182 26.5132 29.387H18.4867C18.9218 30.9663 19.4603 32.4014 20.1021 33.6923C20.7439 34.9832 21.5432 36.2392 22.5 37.4604ZM18.869 36.9447C18.1503 35.9135 17.5048 34.741 16.9327 33.4273C16.3606 32.1136 15.9159 30.7668 15.5985 29.387H9.23789C10.2283 31.3341 11.5564 32.97 13.2223 34.2945C14.8882 35.619 16.7705 36.5025 18.869 36.9447ZM26.1309 36.9447C28.2295 36.5025 30.1117 35.619 31.7776 34.2945C33.4435 32.97 34.7716 31.3341 35.762 29.387H29.4014C29.024 30.7788 28.5492 32.1316 27.9771 33.4453C27.4049 34.7591 26.7896 35.9255 26.1309 36.9447ZM8.05884 26.5746H15.0288C14.911 25.8775 14.8257 25.1942 14.7728 24.5247C14.72 23.8552 14.6935 23.1803 14.6935 22.5C14.6935 21.8197 14.72 21.1448 14.7728 20.4753C14.8257 19.8059 14.911 19.1226 15.0288 18.4255H8.05884C7.87856 19.0625 7.74034 19.7248 7.64419 20.4123C7.54803 21.0998 7.49995 21.7957 7.49995 22.5C7.49995 23.2044 7.54803 23.9003 7.64419 24.5878C7.74034 25.2753 7.87856 25.9375 8.05884 26.5746ZM17.8413 26.5746H27.1586C27.2764 25.8775 27.3618 25.2002 27.4147 24.5427C27.4675 23.8853 27.494 23.2044 27.494 22.5C27.494 21.7957 27.4675 21.1148 27.4147 20.4573C27.3618 19.7999 27.2764 19.1226 27.1586 18.4255H17.8413C17.7235 19.1226 17.6382 19.7999 17.5853 20.4573C17.5324 21.1148 17.5059 21.7957 17.5059 22.5C17.5059 23.2044 17.5324 23.8853 17.5853 24.5427C17.6382 25.2002 17.7235 25.8775 17.8413 26.5746ZM29.9711 26.5746H36.9411C37.1213 25.9375 37.2596 25.2753 37.3557 24.5878C37.4519 23.9003 37.5 23.2044 37.5 22.5C37.5 21.7957 37.4519 21.0998 37.3557 20.4123C37.2596 19.7248 37.1213 19.0625 36.9411 18.4255H29.9711C30.0889 19.1226 30.1742 19.8059 30.2271 20.4753C30.2799 21.1448 30.3064 21.8197 30.3064 22.5C30.3064 23.1803 30.2799 23.8552 30.2271 24.5247C30.1742 25.1942 30.0889 25.8775 29.9711 26.5746ZM29.4014 15.613H35.762C34.7596 13.6419 33.4405 12.006 31.8046 10.7055C30.1688 9.40505 28.2776 8.51563 26.1309 8.03725C26.8496 9.12859 27.4891 10.3221 28.0492 11.6178C28.6093 12.9135 29.06 14.2452 29.4014 15.613ZM18.4867 15.613H26.5132C26.0781 14.0457 25.5306 12.6016 24.8708 11.2807C24.2109 9.95977 23.4206 8.71277 22.5 7.53967C21.5793 8.71277 20.789 9.95977 20.1292 11.2807C19.4693 12.6016 18.9218 14.0457 18.4867 15.613ZM9.23789 15.613H15.5985C15.9399 14.2452 16.3906 12.9135 16.9508 11.6178C17.5108 10.3221 18.1503 9.12859 18.869 8.03725C16.7104 8.51563 14.8161 9.40806 13.1863 10.7146C11.5565 12.0211 10.2403 13.6539 9.23789 15.613Z" fill="white"/>
</g>
</svg>
